Normalized EMG Linear Envelopes
nRows=27
nColumns=17

endheader
time	        VM	        VL	        RF	       GRA	        TA	   ADDLONG	   SEMIMEM	      BFLH	        GM	        GL	       TFL	   GLUTMAX	   GLUTMED	      PIRI	    OBTINT	        QF	
5.0725	  0.091143	  0.138446	  0.589111	  0.055568	  0.337205	  0.062281	  0.002348	  0.016058	  0.024219	  0.042835	  0.121189	  0.059250	  0.213429	  0.000000	  0.000000	  0.000000	
5.073	  0.092538	  0.139146	  0.589004	  0.054894	  0.332041	  0.061939	  0.002469	  0.016006	  0.024316	  0.043072	  0.119272	  0.059191	  0.214607	  0.000000	  0.000000	  0.000000	
5.0735	  0.093956	  0.139841	  0.588855	  0.054240	  0.326908	  0.061596	  0.002606	  0.015967	  0.024423	  0.043316	  0.117368	  0.059134	  0.215829	  0.000000	  0.000000	  0.000000	
5.074	  0.095396	  0.140531	  0.588663	  0.053606	  0.321806	  0.061253	  0.002757	  0.015942	  0.024541	  0.043566	  0.115480	  0.059080	  0.217098	  0.000000	  0.000000	  0.000000	
5.0745	  0.096858	  0.141215	  0.588429	  0.052992	  0.316738	  0.060910	  0.002924	  0.015930	  0.024671	  0.043822	  0.113606	  0.059027	  0.218412	  0.000000	  0.000000	  0.000000	
5.075	  0.098343	  0.141894	  0.588153	  0.052399	  0.311704	  0.060567	  0.003106	  0.015932	  0.024812	  0.044085	  0.111748	  0.058977	  0.219772	  0.000000	  0.000000	  0.000000	
5.0755	  0.099849	  0.142567	  0.587837	  0.051827	  0.306707	  0.060226	  0.003304	  0.015949	  0.024966	  0.044354	  0.109905	  0.058929	  0.221178	  0.000000	  0.000000	  0.000000	
5.076	  0.101378	  0.143234	  0.587481	  0.051275	  0.301746	  0.059885	  0.003519	  0.015981	  0.025131	  0.044630	  0.108078	  0.058884	  0.222631	  0.000000	  0.000000	  0.000000	
5.0765	  0.102930	  0.143896	  0.587085	  0.050744	  0.296825	  0.059546	  0.003750	  0.016029	  0.025309	  0.044913	  0.106268	  0.058841	  0.224129	  0.000000	  0.000000	  0.000000	
5.077	  0.104503	  0.144551	  0.586649	  0.050234	  0.291944	  0.059208	  0.003999	  0.016093	  0.025499	  0.045203	  0.104474	  0.058800	  0.225674	  0.000000	  0.000000	  0.000000	
5.0775	  0.106099	  0.145199	  0.586174	  0.049745	  0.287104	  0.058873	  0.004265	  0.016173	  0.025702	  0.045499	  0.102697	  0.058763	  0.227266	  0.000000	  0.000000	  0.000000	
5.078	  0.107718	  0.145841	  0.585660	  0.049276	  0.282306	  0.058541	  0.004548	  0.016271	  0.025919	  0.045803	  0.100937	  0.058727	  0.228903	  0.000000	  0.000000	  0.000000	
5.0785	  0.109358	  0.146476	  0.585105	  0.048829	  0.277553	  0.058211	  0.004850	  0.016387	  0.026149	  0.046113	  0.099195	  0.058695	  0.230586	  0.000000	  0.000000	  0.000000	
5.079	  0.111021	  0.147103	  0.584511	  0.048402	  0.272845	  0.057885	  0.005170	  0.016521	  0.026392	  0.046431	  0.097470	  0.058664	  0.232316	  0.000000	  0.000000	  0.000000	
5.0795	  0.112706	  0.147723	  0.583876	  0.047997	  0.268183	  0.057562	  0.005508	  0.016674	  0.026649	  0.046756	  0.095764	  0.058637	  0.234091	  0.000000	  0.000000	  0.000000	
5.08	  0.114412	  0.148335	  0.583199	  0.047613	  0.263569	  0.057244	  0.005866	  0.016846	  0.026921	  0.047088	  0.094076	  0.058612	  0.235912	  0.000000	  0.000000	  0.000000	
5.0805	  0.116140	  0.148939	  0.582480	  0.047251	  0.259004	  0.056929	  0.006243	  0.017039	  0.027207	  0.047427	  0.092406	  0.058590	  0.237778	  0.000000	  0.000000	  0.000000	
5.081	  0.117890	  0.149534	  0.581719	  0.046910	  0.254489	  0.056619	  0.006640	  0.017252	  0.027507	  0.047774	  0.090754	  0.058571	  0.239688	  0.000000	  0.000000	  0.000000	
5.0815	  0.119661	  0.150120	  0.580913	  0.046590	  0.250025	  0.056313	  0.007056	  0.017486	  0.027823	  0.048128	  0.089122	  0.058555	  0.241643	  0.000000	  0.000000	  0.000000	
5.082	  0.121453	  0.150696	  0.580062	  0.046293	  0.245613	  0.056013	  0.007494	  0.017742	  0.028154	  0.048489	  0.087509	  0.058542	  0.243642	  0.000000	  0.000000	  0.000000	
5.0825	  0.123266	  0.151262	  0.579164	  0.046017	  0.241255	  0.055718	  0.007952	  0.018021	  0.028500	  0.048858	  0.085914	  0.058532	  0.245685	  0.000000	  0.000000	  0.000000	
5.083	  0.125099	  0.151818	  0.578218	  0.045764	  0.236950	  0.055429	  0.008431	  0.018323	  0.028862	  0.049234	  0.084339	  0.058525	  0.247770	  0.000000	  0.000000	  0.000000	
5.0835	  0.126952	  0.152361	  0.577223	  0.045533	  0.232701	  0.055146	  0.008932	  0.018648	  0.029240	  0.049618	  0.082784	  0.058521	  0.249897	  0.000000	  0.000000	  0.000000	
5.084	  0.128824	  0.152893	  0.576177	  0.045323	  0.228508	  0.054869	  0.009454	  0.018997	  0.029634	  0.050009	  0.081248	  0.058521	  0.252067	  0.000000	  0.000000	  0.000000	
5.0845	  0.130716	  0.153412	  0.575078	  0.045136	  0.224371	  0.054599	  0.009999	  0.019371	  0.030045	  0.050407	  0.079731	  0.058525	  0.254277	  0.000000	  0.000000	  0.000000	
5.085	  0.132627	  0.153918	  0.573924	  0.044972	  0.220292	  0.054336	  0.010566	  0.019771	  0.030473	  0.050813	  0.078235	  0.058533	  0.256528	  0.000000	  0.000000	  0.000000	
5.0855	  0.134556	  0.154409	  0.572714	  0.044830	  0.216270	  0.054081	  0.011156	  0.020196	  0.030917	  0.051227	  0.076758	  0.058544	  0.258819	  0.000000	  0.000000	  0.000000	
